<svg width="1440" height="417" viewBox="0 0 1440 417" fill="none" xmlns="http://www.w3.org/2000/svg">
<path d="M426.631 365.101C410.472 365.101 398.249 350.157 401.828 334.409C406.042 315.857 416.592 297.305 424.664 278.754C440.683 295.23 446.415 313.643 451.327 333.944C455.169 349.832 442.976 365.101 426.631 365.101Z" fill="#4464F3"/>
<path d="M426.616 390.993C425.764 390.993 425.067 390.296 425.067 389.444V316.74C425.067 315.888 425.764 315.191 426.616 315.191C427.468 315.191 428.165 315.888 428.165 316.74V389.444C428.165 390.296 427.468 390.993 426.616 390.993Z" fill="#778EF8"/>
<path d="M426.616 353.255L413.633 338.373C413.075 337.723 413.137 336.747 413.788 336.19C414.439 335.632 415.415 335.694 415.972 336.345L426.616 348.547L437.259 336.345C437.817 335.694 438.808 335.632 439.444 336.19C440.094 336.747 440.156 337.738 439.599 338.373L426.616 353.255Z" fill="#778EF8"/>
<path d="M883.773 7.24707H806.635V322.051H883.773V7.24707Z" fill="#4464F3"/>
<path d="M883.773 322.051H936.587V54.4311C936.587 20.5799 914.618 7.23145 883.773 7.23145V322.035V322.051Z" fill="#778EF8"/>
<path d="M883.772 55.7163H806.635V62.8551H883.772V55.7163Z" fill="#5A78FF"/>
<path d="M883.772 69.9937H806.635V77.1324H883.772V69.9937Z" fill="#5A78FF"/>
<path d="M883.772 84.2715H806.635V91.4103H883.772V84.2715Z" fill="#5A78FF"/>
<path d="M883.772 98.5488H806.635V105.688H883.772V98.5488Z" fill="#5A78FF"/>
<path d="M883.772 112.811H806.635V119.95H883.772V112.811Z" fill="#5A78FF"/>
<path d="M883.772 127.088H806.635V134.227H883.772V127.088Z" fill="#5A78FF"/>
<path d="M883.772 141.366H806.635V148.505H883.772V141.366Z" fill="#5A78FF"/>
<path d="M883.772 155.644H806.635V162.782H883.772V155.644Z" fill="#5A78FF"/>
<path d="M883.772 169.921H806.635V177.06H883.772V169.921Z" fill="#5A78FF"/>
<path d="M883.773 29.4219H806.635V36.5607H883.773V29.4219Z" fill="#5A78FF"/>
<path d="M883.772 184.478H806.635V191.616H883.772V184.478Z" fill="#5A78FF"/>
<path d="M883.772 198.755H806.635V205.894H883.772V198.755Z" fill="#5A78FF"/>
<path d="M883.772 213.018H806.635V220.156H883.772V213.018Z" fill="#5A78FF"/>
<path d="M883.772 227.295H806.635V234.434H883.772V227.295Z" fill="#5A78FF"/>
<path d="M883.772 241.572H806.635V248.711H883.772V241.572Z" fill="#5A78FF"/>
<path d="M883.772 255.85H806.635V262.989H883.772V255.85Z" fill="#5A78FF"/>
<path d="M883.772 270.112H806.635V277.251H883.772V270.112Z" fill="#5A78FF"/>
<path d="M883.772 284.39H806.635V291.528H883.772V284.39Z" fill="#5A78FF"/>
<path d="M883.772 298.667H806.635V305.806H883.772V298.667Z" fill="#5A78FF"/>
<path d="M883.773 62.8706L926.734 62.8706V55.7318L883.773 55.7318V62.8706Z" fill="#4865E7"/>
<path d="M883.757 36.5605H901.217V29.4217H883.757V36.5605Z" fill="#4865E7"/>
<path d="M883.773 77.1323H926.734V69.9935H883.773V77.1323Z" fill="#4865E7"/>
<path d="M883.773 91.4102H926.734V84.2714H883.773V91.4102Z" fill="#4865E7"/>
<path d="M883.773 105.672H926.734V98.5336H883.773V105.672Z" fill="#4865E7"/>
<path d="M883.773 119.965H926.734V112.827H883.773V119.965Z" fill="#4865E7"/>
<path d="M883.773 134.228H926.734V127.089H883.773V134.228Z" fill="#4865E7"/>
<path d="M883.773 148.505H926.734V141.366H883.773V148.505Z" fill="#4865E7"/>
<path d="M883.773 162.767H926.734V155.628H883.773V162.767Z" fill="#4865E7"/>
<path d="M883.773 177.044H926.734V169.906H883.773V177.044Z" fill="#4865E7"/>
<path d="M883.772 191.601H926.733V184.462H883.772V191.601Z" fill="#4865E7"/>
<path d="M883.772 205.879H926.733V198.74H883.772V205.879Z" fill="#4865E7"/>
<path d="M883.772 220.156H926.733V213.017H883.772V220.156Z" fill="#4865E7"/>
<path d="M883.772 234.434H926.733V227.295H883.772V234.434Z" fill="#4865E7"/>
<path d="M883.772 248.711H926.733V241.573H883.772V248.711Z" fill="#4865E7"/>
<path d="M883.772 262.974H926.733V255.835H883.772V262.974Z" fill="#4865E7"/>
<path d="M883.772 277.267H926.733V270.128H883.772V277.267Z" fill="#4865E7"/>
<path d="M883.772 291.529H926.733V284.39H883.772V291.529Z" fill="#4865E7"/>
<path d="M883.772 305.806H926.733V298.667H883.772V305.806Z" fill="#4865E7"/>
<path d="M507.906 321.85L553.655 356.568H462.172L507.906 321.85Z" fill="#778EF8"/>
<path d="M553.655 356.568H462.172V432.772H553.655V356.568Z" fill="#778EF8"/>
<path d="M539.619 375.631H526.404V389.181H539.619V375.631Z" fill="#778EF8"/>
<path d="M514.506 375.631H501.291V389.181H514.506V375.631Z" fill="#778EF8"/>
<path d="M507.906 356.568C511.562 356.568 514.521 353.611 514.521 349.956V349.615C514.521 345.961 511.562 343.003 507.906 343.003C504.25 343.003 501.291 345.961 501.291 349.615V349.956C501.291 353.611 504.25 356.568 507.906 356.568Z" fill="#778EF8"/>
<path d="M489.408 375.631H476.192V389.181H489.408V375.631Z" fill="#778EF8"/>
<path d="M539.619 403.195H526.404V416.745H539.619V403.195Z" fill="#778EF8"/>
<path d="M514.506 403.195H501.291V416.745H514.506V403.195Z" fill="#778EF8"/>
<path d="M489.408 403.195H476.192V416.745H489.408V403.195Z" fill="#778EF8"/>
<path d="M462.172 331.188L507.906 296.732V322.113L462.172 356.568V331.188Z" fill="#778EF8"/>
<path d="M553.64 330.924L507.906 296.469V321.85L553.64 356.568V330.924Z" fill="#4464F3"/>
<path d="M763.503 155.613H640.677V403.814H763.503V155.613Z" fill="#778EF8"/>
<path d="M806.743 155.613H763.518V403.814H806.743V155.613Z" fill="#4865E7"/>
<path d="M763.518 136.133H653.505V155.614H763.518V136.133Z" fill="#778EF8"/>
<path d="M791.808 136.133H763.518V155.614H791.808V136.133Z" fill="#5777FF"/>
<path d="M750.722 169.55H744.184V403.814H750.722V169.55Z" fill="#4865E7"/>
<path d="M732.611 169.55H726.073V403.814H732.611V169.55Z" fill="#4865E7"/>
<path d="M714.484 169.55H707.947V403.814H714.484V169.55Z" fill="#4865E7"/>
<path d="M696.373 169.55H689.836V403.814H696.373V169.55Z" fill="#4865E7"/>
<path d="M678.247 169.55H671.709V403.814H678.247V169.55Z" fill="#4865E7"/>
<path d="M660.136 169.55H653.598V403.814H660.136V169.55Z" fill="#4865E7"/>
<path d="M780.003 169.55H773.465V403.814H780.003V169.55Z" fill="#4865E7"/>
<path d="M798.021 169.55H791.483V403.814H798.021V169.55Z" fill="#4865E7"/>
<path d="M884.315 281.015H840.966V403.814H884.315V281.015Z" fill="#778EF8"/>
<path d="M840.982 281.015H772.52V403.814H840.982V281.015Z" fill="#5777FF"/>
<path d="M827.488 295.896H820.95V403.815H827.488V295.896Z" fill="#4865E7"/>
<path d="M809.377 295.896H802.839V403.815H809.377V295.896Z" fill="#4865E7"/>
<path d="M791.251 295.896H784.713V403.815H791.251V295.896Z" fill="#4865E7"/>
<path d="M857.512 293.713H850.974V403.815H857.512V293.713Z" fill="#4865E7"/>
<path d="M874.167 293.713H867.629V403.815H874.167V293.713Z" fill="#4865E7"/>
<path d="M317.362 273.442H274.401V396.242H317.362V273.442Z" fill="#5777FF"/>
<path d="M385.173 273.442H317.346V396.242H385.173V273.442Z" fill="#4865E7"/>
<path d="M337.192 288.324H330.685V396.242H337.192V288.324Z" fill="#5A78FF"/>
<path d="M355.148 288.324H348.641V396.242H355.148V288.324Z" fill="#5A78FF"/>
<path d="M373.104 288.324H366.597V396.242H373.104V288.324Z" fill="#5A78FF"/>
<path d="M307.446 286.141H300.94V396.242H307.446V286.141Z" fill="#778EF8"/>
<path d="M290.947 286.141H284.44V396.242H290.947V286.141Z" fill="#778EF8"/>
<path d="M679.393 414.638C659.299 414.638 644.752 395.452 650.205 376.111L652.901 366.51V342.058C652.901 334.455 659.067 328.292 666.674 328.292C683.344 328.292 696.854 341.795 696.854 358.457V397.186C696.854 406.834 689.03 414.654 679.378 414.654L679.393 414.638Z" fill="#4965E6"/>
<path d="M674.389 436.473C673.537 436.473 672.84 435.776 672.84 434.925V359.51C672.84 358.659 673.537 357.962 674.389 357.962C675.242 357.962 675.939 358.659 675.939 359.51V434.925C675.939 435.776 675.242 436.473 674.389 436.473Z" fill="#778EF8"/>
<path d="M674.389 383.993L662.754 370.428C662.197 369.778 662.274 368.802 662.925 368.245C663.576 367.687 664.552 367.765 665.109 368.415L674.389 379.239L683.669 368.415C684.227 367.765 685.203 367.687 685.854 368.245C686.505 368.802 686.582 369.778 686.024 370.428L674.389 383.993Z" fill="#778EF8"/>
<path d="M674.389 362.004L666.783 352.325C666.256 351.659 666.364 350.684 667.046 350.157C667.728 349.631 668.688 349.739 669.215 350.42L674.389 357.002L679.564 350.42C680.091 349.755 681.067 349.631 681.733 350.157C682.399 350.684 682.523 351.659 681.996 352.325L674.389 362.004Z" fill="#778EF8"/>
<path d="M674.389 408.089L660.059 391.876C659.486 391.241 659.548 390.25 660.198 389.692C660.849 389.135 661.825 389.181 662.383 389.831L674.389 403.412L686.396 389.831C686.969 389.197 687.946 389.135 688.581 389.692C689.216 390.265 689.278 391.241 688.72 391.876L674.389 408.089Z" fill="#778EF8"/>
<path d="M757.662 397.884C741.504 397.884 729.28 382.94 732.859 367.191C737.073 348.64 747.623 330.088 755.695 311.537C771.714 328.013 777.446 346.425 782.358 366.727C786.2 382.615 774.007 397.884 757.662 397.884Z" fill="#4965E6"/>
<path d="M757.647 423.791C756.795 423.791 756.098 423.094 756.098 422.242V349.538C756.098 348.686 756.795 347.989 757.647 347.989C758.499 347.989 759.196 348.686 759.196 349.538V422.242C759.196 423.094 758.499 423.791 757.647 423.791Z" fill="#778EF8"/>
<path d="M757.647 386.037L744.664 371.156C744.106 370.505 744.168 369.53 744.819 368.972C745.454 368.415 746.446 368.477 747.003 369.127L757.647 381.33L768.29 369.127C768.864 368.477 769.84 368.415 770.475 368.972C771.126 369.53 771.187 370.521 770.63 371.156L757.647 386.037Z" fill="#778EF8"/>
<path d="M580.086 450.271H656.914V283.508H580.086V450.271Z" fill="#5777FF"/>
<path d="M643.699 255.851H566.855L580.07 283.508H656.898L643.699 255.851Z" fill="#4865E7"/>
<path d="M566.855 255.851L553.655 283.508H580.07L566.855 255.851Z" fill="#778EF8"/>
<path d="M553.64 450.271H580.07V283.508H553.64V450.271Z" fill="#778EF8"/>
<path d="M563.586 305.792H570.155V293.465H563.586V305.792Z" fill="#4464F3"/>
<path d="M563.586 325.504H570.155V313.178H563.586V325.504Z" fill="#4464F3"/>
<path d="M563.586 345.217H570.155V332.891H563.586V345.217Z" fill="#4464F3"/>
<path d="M563.586 364.931H570.155V352.604H563.586V364.931Z" fill="#4464F3"/>
<path d="M563.586 384.627H570.155V372.301H563.586V384.627Z" fill="#4464F3"/>
<path d="M563.586 404.341H570.155V392.014H563.586V404.341Z" fill="#4464F3"/>
<path d="M563.586 424.069H570.155V411.743H563.586V424.069Z" fill="#4464F3"/>
<path d="M590.559 305.792H597.128V293.465H590.559V305.792Z" fill="#4965E6"/>
<path d="M590.559 325.504H597.128V313.178H590.559V325.504Z" fill="#4965E6"/>
<path d="M590.559 345.217H597.128V332.891H590.559V345.217Z" fill="#4965E6"/>
<path d="M590.559 364.931H597.128V352.604H590.559V364.931Z" fill="#4965E6"/>
<path d="M590.559 384.627H597.128V372.301H590.559V384.627Z" fill="#4965E6"/>
<path d="M590.559 404.341H597.128V392.014H590.559V404.341Z" fill="#4965E6"/>
<path d="M590.559 424.069H597.128V411.743H590.559V424.069Z" fill="#4965E6"/>
<path d="M615.208 305.792H621.776V293.465H615.208V305.792Z" fill="#4965E6"/>
<path d="M615.208 325.504H621.776V313.178H615.208V325.504Z" fill="#4965E6"/>
<path d="M615.208 345.217H621.776V332.891H615.208V345.217Z" fill="#4965E6"/>
<path d="M615.208 364.931H621.776V352.604H615.208V364.931Z" fill="#4965E6"/>
<path d="M615.208 384.627H621.776V372.301H615.208V384.627Z" fill="#4965E6"/>
<path d="M615.208 404.341H621.776V392.014H615.208V404.341Z" fill="#4965E6"/>
<path d="M615.208 424.069H621.776V411.743H615.208V424.069Z" fill="#4965E6"/>
<path d="M639.856 305.792H646.425V293.465H639.856V305.792Z" fill="#4965E6"/>
<path d="M639.856 325.504H646.425V313.178H639.856V325.504Z" fill="#4965E6"/>
<path d="M639.856 345.217H646.425V332.891H639.856V345.217Z" fill="#4965E6"/>
<path d="M639.856 364.931H646.425V352.604H639.856V364.931Z" fill="#4965E6"/>
<path d="M639.856 384.627H646.425V372.301H639.856V384.627Z" fill="#4965E6"/>
<path d="M639.856 404.341H646.425V392.014H639.856V404.341Z" fill="#4965E6"/>
<path d="M639.856 424.069H646.425V411.743H639.856V424.069Z" fill="#4965E6"/>
<path d="M475.232 375.538H398.404V432.772H475.232V375.538Z" fill="#4865E7"/>
<path d="M462.017 347.881H385.189L398.404 375.538H475.232L462.017 347.881Z" fill="#5777FF"/>
<path d="M385.189 347.881L371.973 375.538H398.404L385.189 347.881Z" fill="#4865E7"/>
<path d="M371.958 432.788H398.388V375.553H371.958V432.788Z" fill="#4865E7"/>
<path d="M381.904 397.837H388.473V385.511H381.904V397.837Z" fill="#4464F3"/>
<path d="M381.904 417.534H388.473V405.208H381.904V417.534Z" fill="#4464F3"/>
<path d="M408.877 397.837H415.446V385.511H408.877V397.837Z" fill="#4865E7"/>
<path d="M408.877 417.534H415.446V405.208H408.877V417.534Z" fill="#4865E7"/>
<path d="M433.526 397.837H440.094V385.511H433.526V397.837Z" fill="#4865E7"/>
<path d="M433.526 417.534H440.094V405.208H433.526V417.534Z" fill="#4865E7"/>
<path d="M458.19 397.837H464.759V385.511H458.19V397.837Z" fill="#4865E7"/>
<path d="M458.19 417.534H464.759V405.208H458.19V417.534Z" fill="#4865E7"/>
<path d="M1011.96 377.861H1098.98V48.7484H1011.96V377.861Z" fill="#4865E7"/>
<path d="M970.903 377.861H1011.96V48.7484H970.903V377.861Z" fill="#778EF8"/>
<path d="M1088.43 69.4985H1022.49V75.7547H1088.43V69.4985Z" fill="#4865E7"/>
<path d="M1088.43 89.8467H1022.49V96.1028H1088.43V89.8467Z" fill="#4865E7"/>
<path d="M1088.43 110.194H1022.49V116.45H1088.43V110.194Z" fill="#4865E7"/>
<path d="M1088.43 130.542H1022.49V136.798H1088.43V130.542Z" fill="#4865E7"/>
<path d="M1088.43 150.905H1022.49V157.161H1088.43V150.905Z" fill="#4865E7"/>
<path d="M1088.43 171.254H1022.49V177.51H1088.43V171.254Z" fill="#4865E7"/>
<path d="M1088.43 191.602H1022.49V197.858H1088.43V191.602Z" fill="#4865E7"/>
<path d="M1088.43 211.949H1022.49V218.205H1088.43V211.949Z" fill="#4865E7"/>
<path d="M1088.43 232.313H1022.49V238.569H1088.43V232.313Z" fill="#4865E7"/>
<path d="M1088.43 252.661H1022.49V258.917H1088.43V252.661Z" fill="#4865E7"/>
<path d="M1088.43 273.009H1022.49V279.265H1088.43V273.009Z" fill="#4865E7"/>
<path d="M1088.43 293.356H1022.49V299.613H1088.43V293.356Z" fill="#4865E7"/>
<path d="M1088.43 313.72H1022.49V319.976H1088.43V313.72Z" fill="#4865E7"/>
<path d="M1088.43 334.067H1022.49V340.324H1088.43V334.067Z" fill="#4865E7"/>
<path d="M1001.98 69.4985H980.88V75.7547H1001.98V69.4985Z" fill="#4865E7"/>
<path d="M1001.98 89.8467H980.88V96.1028H1001.98V89.8467Z" fill="#4865E7"/>
<path d="M1001.98 110.194H980.88V116.45H1001.98V110.194Z" fill="#4865E7"/>
<path d="M1001.98 130.542H980.88V136.798H1001.98V130.542Z" fill="#4865E7"/>
<path d="M1001.98 150.905H980.88V157.161H1001.98V150.905Z" fill="#4865E7"/>
<path d="M1001.98 171.254H980.88V177.51H1001.98V171.254Z" fill="#4865E7"/>
<path d="M1001.98 191.602H980.88V197.858H1001.98V191.602Z" fill="#4865E7"/>
<path d="M1001.98 211.949H980.88V218.205H1001.98V211.949Z" fill="#4865E7"/>
<path d="M1001.98 232.313H980.88V238.569H1001.98V232.313Z" fill="#4865E7"/>
<path d="M1001.98 252.661H980.88V258.917H1001.98V252.661Z" fill="#4865E7"/>
<path d="M1001.98 273.009H980.88V279.265H1001.98V273.009Z" fill="#4865E7"/>
<path d="M1001.98 293.356H980.88V299.613H1001.98V293.356Z" fill="#4865E7"/>
<path d="M1001.98 313.72H980.88V319.976H1001.98V313.72Z" fill="#4865E7"/>
<path d="M1001.98 334.067H980.88V340.324H1001.98V334.067Z" fill="#4865E7"/>
<path d="M1011.96 48.7642L1098.98 48.7642V14.4639L1011.96 14.4639V48.7642Z" fill="#4865E7"/>
<path d="M1011.96 14.4482L970.903 48.764H1011.96V14.4482Z" fill="#778EF8"/>
<path d="M1010.78 210.106H883.107V398.534H1010.78V210.106Z" fill="#778EF8"/>
<path d="M926.641 164.13H1054.32L1010.78 210.107H883.107L926.641 164.13Z" fill="#5777FF"/>
<path d="M1054.32 164.13L1054.69 210.107H1010.78L1054.32 164.13Z" fill="#4865E7"/>
<path d="M1054.69 210.106H1010.78V398.534H1054.69V210.106Z" fill="#4865E7"/>
<path d="M1038.2 226.646H1027.28V247.133H1038.2V226.646Z" fill="#778EF8"/>
<path d="M1038.2 259.397H1027.28V279.884H1038.2V259.397Z" fill="#778EF8"/>
<path d="M1038.2 292.164H1027.28V312.651H1038.2V292.164Z" fill="#778EF8"/>
<path d="M1038.2 324.917H1027.28V345.404H1038.2V324.917Z" fill="#5A78FF"/>
<path d="M1038.2 357.668H1027.28V378.155H1038.2V357.668Z" fill="#5A78FF"/>
<path d="M993.368 226.646H982.445V247.133H993.368V226.646Z" fill="#4865E7"/>
<path d="M993.367 259.397H982.445V279.884H993.367V259.397Z" fill="#4865E7"/>
<path d="M993.367 292.164H982.445V312.651H993.367V292.164Z" fill="#4865E7"/>
<path d="M993.367 324.917H982.445V345.404H993.367V324.917Z" fill="#4865E7"/>
<path d="M993.367 357.668H982.445V378.155H993.367V357.668Z" fill="#4865E7"/>
<path d="M952.405 226.646H941.483V247.133H952.405V226.646Z" fill="#4865E7"/>
<path d="M952.405 259.397H941.483V279.884H952.405V259.397Z" fill="#4865E7"/>
<path d="M952.405 292.164H941.483V312.651H952.405V292.164Z" fill="#4865E7"/>
<path d="M952.405 324.917H941.483V345.404H952.405V324.917Z" fill="#4865E7"/>
<path d="M952.405 357.668H941.483V378.155H952.405V357.668Z" fill="#4865E7"/>
<path d="M911.443 226.646H900.52V247.133H911.443V226.646Z" fill="#4865E7"/>
<path d="M911.443 259.397H900.52V279.884H911.443V259.397Z" fill="#4865E7"/>
<path d="M911.443 292.164H900.52V312.651H911.443V292.164Z" fill="#4865E7"/>
<path d="M911.443 324.917H900.52V345.404H911.443V324.917Z" fill="#4865E7"/>
<path d="M911.443 357.668H900.52V378.155H911.443V357.668Z" fill="#4865E7"/>
<path d="M947.587 177.835L976.233 210.695H918.926L947.587 177.835Z" fill="#778EF8"/>
<path d="M947.587 177.835L976.233 210.695L975.257 177.835H947.587Z" fill="#5A78FF"/>
<path d="M947.587 209.239C951.258 209.239 954.233 206.266 954.233 202.596C954.233 198.926 951.258 195.953 947.587 195.953C943.915 195.953 940.94 198.926 940.94 202.596C940.94 206.266 943.915 209.239 947.587 209.239Z" fill="#4865E7"/>
<path d="M970.051 360.641C952.529 367.764 935.379 368.105 918.647 360.641C926.47 321.509 923.17 297.537 944.349 276.694C967.046 297.382 963.002 321.509 970.051 360.641Z" fill="#4965E6"/>
<path d="M944.348 384.504C943.496 384.504 942.799 383.807 942.799 382.955V311.613C942.799 310.762 943.496 310.065 944.348 310.065C945.201 310.065 945.898 310.762 945.898 311.613V382.955C945.898 383.807 945.201 384.504 944.348 384.504Z" fill="#778EF8"/>
<path d="M944.349 336.111L932.714 322.546C932.156 321.896 932.233 320.92 932.884 320.363C933.535 319.805 934.511 319.883 935.068 320.533L944.349 331.357L953.629 320.533C954.186 319.883 955.162 319.805 955.813 320.363C956.464 320.92 956.541 321.896 955.984 322.546L944.349 336.111Z" fill="#778EF8"/>
<path d="M944.349 314.122L936.742 304.444C936.215 303.778 936.323 302.802 937.005 302.276C937.687 301.749 938.647 301.858 939.174 302.539L944.349 309.12L949.523 302.539C950.05 301.873 951.026 301.749 951.692 302.276C952.358 302.802 952.482 303.778 951.956 304.444L944.349 314.122Z" fill="#778EF8"/>
<path d="M944.349 360.207L930.018 343.994C929.445 343.359 929.507 342.368 930.157 341.811C930.793 341.253 931.784 341.3 932.342 341.95L944.349 355.531L956.355 341.95C956.929 341.315 957.905 341.253 958.54 341.811C959.175 342.384 959.237 343.359 958.679 343.994L944.349 360.207Z" fill="#778EF8"/>
<path d="M1124.68 360.625C1107.16 367.749 1090.01 368.089 1073.28 360.625C1081.1 321.494 1077.8 297.522 1098.98 276.679C1121.68 297.367 1117.63 321.494 1124.68 360.625Z" fill="#4464F3"/>
<path d="M1098.98 384.504C1098.13 384.504 1097.43 383.807 1097.43 382.955V311.614C1097.43 310.762 1098.13 310.065 1098.98 310.065C1099.83 310.065 1100.53 310.762 1100.53 311.614V382.955C1100.53 383.807 1099.83 384.504 1098.98 384.504Z" fill="#778EF8"/>
<path d="M1098.98 336.096L1087.35 322.531C1086.79 321.881 1086.86 320.905 1087.52 320.348C1088.17 319.79 1089.14 319.868 1089.7 320.518L1098.98 331.342L1108.26 320.518C1108.82 319.868 1109.79 319.79 1110.44 320.348C1111.1 320.905 1111.17 321.881 1110.62 322.531L1098.98 336.096Z" fill="#778EF8"/>
<path d="M1098.98 314.107L1091.37 304.429C1090.85 303.763 1090.95 302.787 1091.64 302.261C1092.32 301.734 1093.28 301.843 1093.81 302.524L1098.98 309.105L1104.15 302.524C1104.68 301.858 1105.66 301.734 1106.32 302.261C1106.99 302.787 1107.11 303.763 1106.59 304.429L1098.98 314.107Z" fill="#778EF8"/>
<path d="M1098.98 360.192L1084.65 343.979C1084.08 343.344 1084.14 342.353 1084.79 341.795C1085.44 341.223 1086.42 341.284 1086.97 341.935L1098.98 355.516L1110.99 341.935C1111.56 341.3 1112.54 341.238 1113.17 341.795C1113.81 342.368 1113.87 343.344 1113.31 343.979L1098.98 360.192Z" fill="#778EF8"/>
<path d="M835.885 321.958L882.812 356.692H788.973L835.885 321.958Z" fill="#5A78FF"/>
<path d="M882.812 356.693H788.973V456.125H882.812V356.693Z" fill="#5A78FF"/>
<path d="M868.419 375.755H854.863V389.305H868.419V375.755Z" fill="#778EF8"/>
<path d="M842.655 375.755H829.099V389.305H842.655V375.755Z" fill="#778EF8"/>
<path d="M835.885 356.692C839.634 356.692 842.671 353.657 842.671 349.91C842.671 346.162 839.634 343.127 835.885 343.127C832.136 343.127 829.099 346.162 829.099 349.91C829.099 353.657 832.136 356.692 835.885 356.692Z" fill="#778EF8"/>
<path d="M816.906 375.755H803.35V389.305H816.906V375.755Z" fill="#778EF8"/>
<path d="M868.419 403.319H854.863V416.869H868.419V403.319Z" fill="#778EF8"/>
<path d="M842.655 403.319H829.099V416.869H842.655V403.319Z" fill="#778EF8"/>
<path d="M816.906 403.319H803.35V416.869H816.906V403.319Z" fill="#778EF8"/>
<path d="M788.973 331.033L835.885 296.578V321.958L788.973 356.429V331.033Z" fill="#778EF8"/>
<path d="M882.812 331.033L835.885 296.578V321.958L882.812 356.429V331.033Z" fill="#5777FF"/>
<path d="M813.482 433.763C795.96 440.886 778.81 441.227 762.078 433.763C769.902 394.631 766.602 370.66 787.78 349.816C810.477 370.505 806.433 394.631 813.482 433.763Z" fill="#4464F3"/>
<path d="M787.78 457.626C786.928 457.626 786.231 456.929 786.231 456.077V384.736C786.231 383.884 786.928 383.187 787.78 383.187C788.632 383.187 789.329 383.884 789.329 384.736V456.077C789.329 456.929 788.632 457.626 787.78 457.626Z" fill="#778EF8"/>
<path d="M787.78 409.234L776.145 395.668C775.587 395.018 775.665 394.042 776.316 393.485C776.966 392.927 777.942 393.005 778.5 393.655L787.78 404.48L797.06 393.655C797.618 393.005 798.594 392.927 799.245 393.485C799.895 394.042 799.973 395.018 799.415 395.668L787.78 409.234Z" fill="#778EF8"/>
<path d="M787.78 387.245L780.173 377.566C779.646 376.901 779.755 375.925 780.436 375.398C781.118 374.872 782.079 374.98 782.605 375.662L787.78 382.243L792.955 375.662C793.481 374.996 794.457 374.872 795.123 375.398C795.79 375.925 795.914 376.901 795.387 377.566L787.78 387.245Z" fill="#778EF8"/>
<path d="M787.78 433.329L773.449 417.116C772.876 416.481 772.938 415.49 773.589 414.933C774.24 414.36 775.216 414.422 775.773 415.072L787.78 428.653L799.787 415.072C800.36 414.437 801.336 414.375 801.971 414.933C802.607 415.506 802.668 416.481 802.111 417.116L787.78 433.329Z" fill="#778EF8"/>
<path d="M1124.85 355.592H1026.29L1061.75 390.837H1160.32L1124.85 355.592Z" fill="#4965E6"/>
<path d="M1089.39 477.014H1160.32V390.837H1089.39V477.014Z" fill="#5777FF"/>
<path d="M929.46 477.014H1098.96V355.592H929.46V477.014Z" fill="#5A78FF"/>
<path d="M1063.5 320.1H964.923L1000.39 355.592H1098.96L1063.5 320.1Z" fill="#778EF8"/>
<path d="M964.923 320.1L929.46 355.592H1000.39L964.923 320.1Z" fill="#5777FF"/>
<path d="M929.46 477.014H1000.39V355.592H929.46V477.014Z" fill="#5777FF"/>
<path d="M1017.09 380.245H1027.34V369.994H1017.09V380.245Z" fill="#5A78FF"/>
<path d="M1036.56 380.245H1046.82V369.994H1036.56V380.245Z" fill="#5A78FF"/>
<path d="M1056.02 380.245H1066.28V369.994H1056.02V380.245Z" fill="#5A78FF"/>
<path d="M1075.49 380.245H1085.75V369.994H1075.49V380.245Z" fill="#5A78FF"/>
<path d="M1017.09 401.089H1027.34V390.838H1017.09V401.089Z" fill="#5A78FF"/>
<path d="M1036.56 401.089H1046.82V390.838H1036.56V401.089Z" fill="#5A78FF"/>
<path d="M1056.02 401.089H1066.28V390.838H1056.02V401.089Z" fill="#5A78FF"/>
<path d="M1075.49 401.089H1085.75V390.838H1075.49V401.089Z" fill="#5A78FF"/>
<path d="M1017.09 421.917H1027.34V411.665H1017.09V421.917Z" fill="#5A78FF"/>
<path d="M1036.56 421.917H1046.82V411.665H1036.56V421.917Z" fill="#5A78FF"/>
<path d="M1056.02 421.917H1066.28V411.665H1056.02V421.917Z" fill="#5A78FF"/>
<path d="M1075.49 421.917H1085.75V411.665H1075.49V421.917Z" fill="#5A78FF"/>
<path d="M940.336 380.245H950.592V369.994H940.336V380.245Z" fill="#778EF8"/>
<path d="M959.794 380.245H970.05V369.994H959.794V380.245Z" fill="#778EF8"/>
<path d="M979.253 380.245H989.509V369.994H979.253V380.245Z" fill="#778EF8"/>
<path d="M940.336 401.089H950.592V390.838H940.336V401.089Z" fill="#778EF8"/>
<path d="M959.794 401.089H970.051V390.838H959.794V401.089Z" fill="#778EF8"/>
<path d="M979.253 401.089H989.509V390.838H979.253V401.089Z" fill="#778EF8"/>
<path d="M940.336 421.917H950.592V411.665H940.336V421.917Z" fill="#778EF8"/>
<path d="M959.794 421.917H970.051V411.665H959.794V421.917Z" fill="#778EF8"/>
<path d="M979.253 421.917H989.509V411.665H979.253V421.917Z" fill="#778EF8"/>
<path d="M1098.95 421.917H1109.21V411.666H1098.95V421.917Z" fill="#778EF8"/>
<path d="M1118.42 421.917H1128.68V411.666H1118.42V421.917Z" fill="#778EF8"/>
<path d="M1137.88 421.917H1148.14V411.666H1137.88V421.917Z" fill="#778EF8"/>
<path d="M554.229 443.488C538.07 443.488 525.846 428.544 529.425 412.796C533.639 394.244 545.568 375.119 553.655 356.568C569.675 373.044 574.028 392.03 578.939 412.331C582.782 428.219 570.589 443.488 554.244 443.488H554.229Z" fill="#4965E6"/>
<path d="M554.213 469.395C553.361 469.395 552.664 468.698 552.664 467.846V395.142C552.664 394.29 553.361 393.593 554.213 393.593C555.065 393.593 555.763 394.29 555.763 395.142V467.846C555.763 468.698 555.065 469.395 554.213 469.395Z" fill="#778EF8"/>
<path d="M554.213 431.641L541.23 416.76C540.673 416.109 540.735 415.134 541.385 414.576C542.021 414.019 543.012 414.081 543.57 414.731L554.213 426.934L564.857 414.731C565.43 414.081 566.406 414.019 567.041 414.576C567.692 415.134 567.754 416.125 567.196 416.76L554.213 431.641Z" fill="#778EF8"/>
<path d="M356.512 435.187C340.353 435.187 328.129 420.244 331.708 404.495C335.922 385.944 347.851 366.819 355.938 348.268C371.958 364.744 376.311 383.729 381.222 404.031C385.065 419.919 372.872 435.187 356.527 435.187H356.512Z" fill="#4965E6"/>
<path d="M356.496 461.079C355.644 461.079 354.947 460.382 354.947 459.531V386.826C354.947 385.975 355.644 385.278 356.496 385.278C357.348 385.278 358.045 385.975 358.045 386.826V459.531C358.045 460.382 357.348 461.079 356.496 461.079Z" fill="#778EF8"/>
<path d="M356.496 423.341L343.513 408.46C342.956 407.809 343.017 406.834 343.668 406.276C344.319 405.719 345.295 405.781 345.853 406.431L356.496 418.634L367.14 406.431C367.697 405.796 368.689 405.719 369.324 406.276C369.975 406.834 370.037 407.825 369.479 408.46L356.496 423.341Z" fill="#778EF8"/>
<path d="M902.209 477.045C882.115 477.045 867.567 457.858 873.021 438.517L875.716 428.916V404.464C875.716 396.861 881.882 390.698 889.489 390.698C906.159 390.698 919.669 404.201 919.669 420.863V459.593C919.669 469.24 911.845 477.06 902.193 477.06L902.209 477.045Z" fill="#4965E6"/>
<path d="M897.189 424.425L889.582 414.746C889.056 414.08 889.164 413.105 889.846 412.578C890.527 412.052 891.488 412.176 892.015 412.841L897.189 419.423L902.364 412.841C902.891 412.176 903.867 412.052 904.533 412.578C905.199 413.105 905.323 414.08 904.796 414.746L897.189 424.425Z" fill="#778EF8"/>
<path d="M765.502 481.644C749.343 481.644 737.119 466.701 740.698 450.952C744.912 432.401 755.463 413.849 763.534 395.297C779.554 411.774 785.286 430.186 790.197 450.488C794.039 466.376 781.846 481.644 765.502 481.644Z" fill="#4965E6"/>
<path d="M-18.6923 463.427H83.9309L83.9309 311.964H-18.6923L-18.6923 463.427Z" fill="#4865E7"/>
<path d="M48.933 275H-54L-18.7078 311.948H83.9309L48.933 275Z" fill="#5777FF"/>
<path d="M-4.70252 341.711H4.08179L4.08179 325.25H-4.70252L-4.70252 341.711Z" fill="#4865E7"/>
<path d="M-4.70252 368.052H4.08179L4.08179 351.591H-4.70252L-4.70252 368.052Z" fill="#4865E7"/>
<path d="M-4.70252 394.362H4.08179L4.08179 377.901H-4.70252L-4.70252 394.362Z" fill="#4865E7"/>
<path d="M-4.70252 420.703H4.08179L4.08179 404.242H-4.70252L-4.70252 420.703Z" fill="#4865E7"/>
<path d="M28.2195 341.711H37.0038V325.25H28.2195V341.711Z" fill="#4865E7"/>
<path d="M28.2195 368.052H37.0038V351.591H28.2195V368.052Z" fill="#4865E7"/>
<path d="M28.2195 394.362H37.0038V377.901H28.2195V394.362Z" fill="#4865E7"/>
<path d="M28.2195 420.703H37.0038V404.242H28.2195V420.703Z" fill="#4865E7"/>
<path d="M61.1566 341.711H69.9409V325.25H61.1566V341.711Z" fill="#4865E7"/>
<path d="M61.1566 368.052H69.9409V351.591H61.1566V368.052Z" fill="#4865E7"/>
<path d="M61.1566 394.362H69.9409V377.901H61.1566V394.362Z" fill="#4865E7"/>
<path d="M61.1566 420.703H69.9409V404.242H61.1566V420.703Z" fill="#4865E7"/>
<path d="M32.0926 286.026L9.07056 312.429H55.1302L32.0926 286.026Z" fill="#4865E7"/>
<path d="M32.0926 286.026L9.07056 312.429L9.8607 286.026H32.0926Z" fill="#778EF8"/>
<path d="M32.0926 311.252C29.149 311.252 26.7631 308.867 26.7631 305.925C26.7631 302.982 29.149 300.598 32.0926 300.598C35.0362 300.598 37.422 302.982 37.422 305.925C37.422 308.867 35.0362 311.252 32.0926 311.252Z" fill="#4865E7"/>
<path d="M312.915 349.228H130.97V455.272H312.915V349.228Z" fill="#778EF8"/>
<path d="M169.035 321.044H274.85L236.785 349.227H130.97L169.035 321.044Z" fill="#4865E7"/>
<path d="M274.85 321.044L312.931 349.227H236.785L274.85 321.044Z" fill="#5A78FF"/>
<path d="M312.915 349.228H236.785V455.272H312.915V349.228Z" fill="#5A78FF"/>
<path d="M218.844 364.682H207.844V375.677H218.844V364.682Z" fill="#778EF8"/>
<path d="M197.945 364.682H186.945V375.677H197.945V364.682Z" fill="#778EF8"/>
<path d="M177.06 364.682H166.061V375.677H177.06V364.682Z" fill="#778EF8"/>
<path d="M156.161 364.682H145.161V375.677H156.161V364.682Z" fill="#778EF8"/>
<path d="M218.844 387.059H207.844V398.053H218.844V387.059Z" fill="#778EF8"/>
<path d="M197.945 387.059H186.945V398.053H197.945V387.059Z" fill="#778EF8"/>
<path d="M177.06 387.059H166.061V398.053H177.06V387.059Z" fill="#778EF8"/>
<path d="M156.161 387.059H145.161V398.053H156.161V387.059Z" fill="#778EF8"/>
<path d="M218.844 409.419H207.844V420.414H218.844V409.419Z" fill="#778EF8"/>
<path d="M197.945 409.419H186.945V420.414H197.945V409.419Z" fill="#778EF8"/>
<path d="M177.06 409.419H166.061V420.414H177.06V409.419Z" fill="#778EF8"/>
<path d="M156.161 409.419H145.161V420.414H156.161V409.419Z" fill="#778EF8"/>
<path d="M301.249 364.682H290.25V375.677H301.249V364.682Z" fill="#4865E7"/>
<path d="M280.35 364.682H269.35V375.677H280.35V364.682Z" fill="#4865E7"/>
<path d="M259.45 364.682H248.451V375.677H259.45V364.682Z" fill="#4865E7"/>
<path d="M301.249 387.059H290.25V398.053H301.249V387.059Z" fill="#4865E7"/>
<path d="M280.35 387.059H269.35V398.053H280.35V387.059Z" fill="#4865E7"/>
<path d="M259.45 387.059H248.451V398.053H259.45V387.059Z" fill="#4865E7"/>
<path d="M301.249 409.419H290.25V420.414H301.249V409.419Z" fill="#4865E7"/>
<path d="M280.35 409.419H269.35V420.414H280.35V409.419Z" fill="#4865E7"/>
<path d="M259.45 409.419H248.451V420.414H259.45V409.419Z" fill="#4865E7"/>
<path d="M103.343 435.467C83.249 435.467 68.7014 416.28 74.1548 396.939L76.8505 387.338V362.886C76.8505 355.283 83.0166 349.12 90.6235 349.12C107.294 349.12 120.803 362.623 120.803 379.285V418.014C120.803 427.662 112.979 435.482 103.327 435.482L103.343 435.467Z" fill="#4965E6"/>
<path d="M98.3387 457.316C97.4866 457.316 96.7894 456.62 96.7894 455.768V380.354C96.7894 379.502 97.4866 378.805 98.3387 378.805C99.1908 378.805 99.888 379.502 99.888 380.354V455.768C99.888 456.62 99.1908 457.316 98.3387 457.316Z" fill="#778EF8"/>
<path d="M98.3388 404.836L86.7038 391.271C86.1461 390.62 86.2236 389.645 86.8742 389.087C87.5249 388.53 88.501 388.607 89.0587 389.258L98.3388 400.082L107.619 389.258C108.177 388.607 109.153 388.53 109.803 389.087C110.454 389.645 110.531 390.62 109.974 391.271L98.3388 404.836Z" fill="#778EF8"/>
<path d="M98.3387 382.847L90.7318 373.168C90.2051 372.503 90.3135 371.527 90.9952 371C91.6614 370.474 92.6374 370.582 93.1642 371.264L98.3387 377.845L103.513 371.264C104.04 370.598 105.016 370.474 105.682 371C106.348 371.527 106.472 372.503 105.946 373.168L98.3387 382.847Z" fill="#778EF8"/>
<path d="M98.3388 428.932L84.0081 412.719C83.4349 412.084 83.4969 411.093 84.1476 410.535C84.7828 409.962 85.7743 410.024 86.332 410.675L98.3388 424.255L110.346 410.675C110.919 410.04 111.895 409.978 112.53 410.535C113.165 411.108 113.227 412.084 112.669 412.719L98.3388 428.932Z" fill="#778EF8"/>
<path d="M316.169 448.165C300.01 448.165 287.786 433.221 291.365 417.473C295.579 398.921 306.13 380.369 314.201 361.818C330.221 378.294 335.953 396.707 340.864 417.008C344.706 432.896 332.514 448.165 316.169 448.165Z" fill="#4464F3"/>
<path d="M316.169 474.072C315.317 474.072 314.62 473.375 314.62 472.523V399.819C314.62 398.967 315.317 398.271 316.169 398.271C317.021 398.271 317.718 398.967 317.718 399.819V472.523C317.718 473.375 317.021 474.072 316.169 474.072Z" fill="#778EF8"/>
<path d="M-156 535.905H1160.87V471.176C1006.38 459.794 897.824 476.549 766.23 490.966C614.588 507.598 320.817 426.547 -156 404.588V535.905Z" fill="#4464F3"/>
<path d="M23.8385 481.799L3.29523 492.53C-20.0212 439.725 -67.8934 401.817 -124.658 391.225L-156 385.371V535.89H89.6357C101.224 496.727 60.0447 462.86 23.8385 481.784V481.799Z" fill="#778EF8"/>
<path d="M1261.73 39.7046H1161V420.647H1261.73V39.7046Z" fill="#778EF8"/>
<path d="M1309.26 39.7046H1261.73V420.647H1309.26V39.7046Z" fill="#4865E7"/>
<path d="M1249.53 63.4595H1173.19V71.2022H1249.53V63.4595Z" fill="#5A78FF"/>
<path d="M1249.53 87.0127H1173.19V94.7554H1249.53V87.0127Z" fill="#5A78FF"/>
<path d="M1249.53 110.582H1173.19V118.325H1249.53V110.582Z" fill="#5A78FF"/>
<path d="M1249.53 134.135H1173.19V141.878H1249.53V134.135Z" fill="#5A78FF"/>
<path d="M1249.53 157.688H1173.19V165.431H1249.53V157.688Z" fill="#5A78FF"/>
<path d="M1249.53 181.242H1173.19V188.984H1249.53V181.242Z" fill="#5A78FF"/>
<path d="M1249.53 204.811H1173.19V212.553H1249.53V204.811Z" fill="#5A78FF"/>
<path d="M1249.53 228.364H1173.19V236.107H1249.53V228.364Z" fill="#5A78FF"/>
<path d="M1249.53 251.917H1173.19V259.66H1249.53V251.917Z" fill="#5A78FF"/>
<path d="M1249.53 275.471H1173.19V283.214H1249.53V275.471Z" fill="#5A78FF"/>
<path d="M1249.53 299.024H1173.19V306.767H1249.53V299.024Z" fill="#5A78FF"/>
<path d="M1249.53 322.593H1173.19V330.336H1249.53V322.593Z" fill="#5A78FF"/>
<path d="M1249.53 346.146H1173.19V353.889H1249.53V346.146Z" fill="#5A78FF"/>
<path d="M1249.53 369.7H1173.19V377.442H1249.53V369.7Z" fill="#5A78FF"/>
<path d="M1297.69 63.4595H1273.28V71.2022H1297.69V63.4595Z" fill="#5A78FF"/>
<path d="M1297.69 87.0127H1273.28V94.7554H1297.69V87.0127Z" fill="#5A78FF"/>
<path d="M1297.69 110.582H1273.28V118.325H1297.69V110.582Z" fill="#5A78FF"/>
<path d="M1297.69 134.135H1273.28V141.878H1297.69V134.135Z" fill="#5A78FF"/>
<path d="M1297.69 157.688H1273.28V165.431H1297.69V157.688Z" fill="#5A78FF"/>
<path d="M1297.69 181.242H1273.28V188.984H1297.69V181.242Z" fill="#5A78FF"/>
<path d="M1297.69 204.811H1273.28V212.553H1297.69V204.811Z" fill="#5A78FF"/>
<path d="M1297.69 228.364H1273.28V236.107H1297.69V228.364Z" fill="#5A78FF"/>
<path d="M1297.69 251.917H1273.28V259.66H1297.69V251.917Z" fill="#5A78FF"/>
<path d="M1297.69 275.471H1273.28V283.214H1297.69V275.471Z" fill="#5A78FF"/>
<path d="M1297.69 299.024H1273.28V306.767H1297.69V299.024Z" fill="#5A78FF"/>
<path d="M1297.69 322.593H1273.28V330.336H1297.69V322.593Z" fill="#5A78FF"/>
<path d="M1297.69 346.146H1273.28V353.889H1297.69V346.146Z" fill="#5A78FF"/>
<path d="M1297.69 369.7H1273.28V377.442H1297.69V369.7Z" fill="#5A78FF"/>
<path d="M1261.73 0H1161V39.7047H1261.73V0Z" fill="#5777FF"/>
<path d="M1261.73 0L1309.25 39.7047H1261.73V0Z" fill="#4865E7"/>
<path d="M1344.56 429.954H1447.18V278.49H1344.56V429.954Z" fill="#4865E7"/>
<path d="M1412.18 241.526H1309.25L1344.54 278.475H1447.18L1412.18 241.526Z" fill="#5777FF"/>
<path d="M1309.25 241.526V278.475H1344.54L1309.25 241.526Z" fill="#778EF8"/>
<path d="M1309.26 429.954H1344.56V278.49H1309.26V429.954Z" fill="#4464F3"/>
<path d="M1322.51 308.238H1331.29V291.777H1322.51V308.238Z" fill="#5A78FF"/>
<path d="M1322.51 334.579H1331.29V318.118H1322.51V334.579Z" fill="#5A78FF"/>
<path d="M1322.51 360.889H1331.29V344.428H1322.51V360.889Z" fill="#5A78FF"/>
<path d="M1322.51 387.229H1331.29V370.768H1322.51V387.229Z" fill="#5A78FF"/>
<path d="M1322.51 413.554H1331.29V397.093H1322.51V413.554Z" fill="#5A78FF"/>
<path d="M1358.55 308.238H1367.33V291.777H1358.55V308.238Z" fill="#4865E7"/>
<path d="M1358.55 334.579H1367.33V318.118H1358.55V334.579Z" fill="#4865E7"/>
<path d="M1358.55 360.889H1367.33V344.428H1358.55V360.889Z" fill="#4865E7"/>
<path d="M1358.55 387.229H1367.33V370.768H1358.55V387.229Z" fill="#4865E7"/>
<path d="M1358.55 413.554H1367.33V397.093H1358.55V413.554Z" fill="#4865E7"/>
<path d="M1391.47 308.238H1400.25V291.777H1391.47V308.238Z" fill="#4865E7"/>
<path d="M1391.47 334.579H1400.25V318.118H1391.47V334.579Z" fill="#4865E7"/>
<path d="M1391.47 360.889H1400.25V344.428H1391.47V360.889Z" fill="#4865E7"/>
<path d="M1391.47 387.229H1400.25V370.768H1391.47V387.229Z" fill="#4865E7"/>
<path d="M1391.47 413.554H1400.25V397.093H1391.47V413.554Z" fill="#4865E7"/>
<path d="M1424.41 308.238H1433.19V291.777H1424.41V308.238Z" fill="#4865E7"/>
<path d="M1424.41 334.579H1433.19V318.118H1424.41V334.579Z" fill="#4865E7"/>
<path d="M1424.41 360.889H1433.19V344.428H1424.41V360.889Z" fill="#4865E7"/>
<path d="M1424.41 387.229H1433.19V370.768H1424.41V387.229Z" fill="#4865E7"/>
<path d="M1424.41 413.554H1433.19V397.093H1424.41V413.554Z" fill="#4865E7"/>
<path d="M1395.34 252.552L1372.32 278.955H1418.38L1395.34 252.552Z" fill="#4865E7"/>
<path d="M1395.34 252.552L1372.32 278.955L1373.11 252.552H1395.34Z" fill="#778EF8"/>
<path d="M1395.34 277.778C1392.4 277.778 1390.01 275.393 1390.01 272.451C1390.01 269.509 1392.4 267.124 1395.34 267.124C1398.29 267.124 1400.67 269.509 1400.67 272.451C1400.67 275.393 1398.29 277.778 1395.34 277.778Z" fill="#4865E7"/>
<path d="M1459.56 435.467C1439.46 435.467 1424.92 416.28 1430.37 396.939L1433.07 387.338V362.886C1433.07 355.283 1439.23 349.12 1446.84 349.12C1463.51 349.12 1477.02 362.623 1477.02 379.285V418.014C1477.02 427.662 1469.19 435.482 1459.54 435.482L1459.56 435.467Z" fill="#4965E6"/>
<path d="M1454.55 428.932L1440.22 412.719C1439.65 412.084 1439.71 411.093 1440.36 410.535C1441 409.962 1441.99 410.024 1442.55 410.675L1454.55 424.255L1466.56 410.675C1467.13 410.04 1468.11 409.978 1468.75 410.535C1469.38 411.108 1469.44 412.084 1468.89 412.719L1454.55 428.932Z" fill="#778EF8"/>
<path d="M1287.56 413.617C1270.04 420.74 1252.89 421.081 1236.15 413.617C1243.98 374.485 1240.68 350.513 1261.86 329.67C1284.55 350.358 1280.51 374.485 1287.56 413.617Z" fill="#4865E7"/>
<path d="M1261.86 437.48C1261 437.48 1260.31 436.783 1260.31 435.932V364.59C1260.31 363.738 1261 363.042 1261.86 363.042C1262.71 363.042 1263.41 363.738 1263.41 364.59V435.932C1263.41 436.783 1262.71 437.48 1261.86 437.48Z" fill="#778EF8"/>
<path d="M1261.86 389.088L1250.22 375.523C1249.66 374.872 1249.74 373.897 1250.39 373.339C1251.04 372.782 1252.02 372.859 1252.58 373.51L1261.86 384.334L1271.14 373.51C1271.69 372.859 1272.67 372.782 1273.32 373.339C1273.97 373.897 1274.05 374.872 1273.49 375.523L1261.86 389.088Z" fill="#778EF8"/>
<path d="M1261.86 367.098L1254.25 357.42C1253.72 356.754 1253.83 355.778 1254.51 355.252C1255.18 354.725 1256.16 354.834 1256.68 355.515L1261.86 362.097L1267.03 355.515C1267.56 354.849 1268.53 354.725 1269.2 355.252C1269.87 355.778 1269.99 356.754 1269.46 357.42L1261.86 367.098Z" fill="#778EF8"/>
<path d="M1261.86 413.183L1247.53 396.97C1246.95 396.335 1247.02 395.344 1247.67 394.786C1248.3 394.213 1249.29 394.275 1249.85 394.926L1261.86 408.506L1273.86 394.926C1274.44 394.291 1275.41 394.229 1276.05 394.786C1276.68 395.359 1276.75 396.335 1276.19 396.97L1261.86 413.183Z" fill="#778EF8"/>
<path d="M1161 535.905H2477.87V471.176C2323.38 459.794 2214.82 476.549 2083.23 490.966C1931.59 507.598 1637.82 426.547 1161 404.588V535.905Z" fill="#4464F3"/>
<path d="M1340.84 481.799L1320.3 492.53C1296.98 439.725 1249.11 401.817 1192.34 391.225L1161 385.371V535.89H1406.64C1418.22 496.727 1377.04 462.86 1340.84 481.784V481.799Z" fill="#778EF8"/>
<path d="M1196.49 535.905V414.344C1196.49 413.492 1195.8 412.795 1194.94 412.795C1194.09 412.795 1193.4 413.492 1193.4 414.344V535.905H1196.49Z" fill="#778EF8"/>
</svg>
