<svg width="98" height="51" viewBox="0 0 98 51" fill="none" xmlns="http://www.w3.org/2000/svg">
<path d="M3.05935 46.0058C1.78604 45.6477 0.950437 44.5203 1.44119 43.1806C2.03805 41.5094 4.39897 41.2972 5.81817 41.8278C6.85273 42.2124 7.44959 42.9552 7.51591 44.0428C7.51591 44.0826 7.48938 44.1224 7.44959 44.1224L6.5344 44.2152C6.48135 44.2152 6.42829 44.1887 6.42829 44.1224C6.1365 41.8012 2.03805 42.2655 2.43596 44.0693C2.64817 45.0243 5.18152 45.3559 6.07018 45.6477C8.23214 46.3506 8.40457 49.1095 6.36198 50.0379C5.51311 50.4226 4.59792 50.5287 3.60315 50.343C2.11763 50.0777 1.24224 49.2023 0.963701 47.6903C0.950438 47.6107 1.00349 47.5311 1.08307 47.5178H1.09634L2.01152 47.4117C2.05131 47.4117 2.0911 47.4382 2.0911 47.478C2.25027 49.4013 5.1152 49.9716 6.33545 48.7911C6.86599 48.2739 6.77315 47.4117 6.22934 47.0005C5.5529 46.5363 3.90821 46.2445 3.05935 46.0058Z" fill="white"/>
<path d="M47.9963 41.5762C46.0068 41.4436 44.3621 42.4383 43.7785 44.4013C43.2612 46.1389 43.553 48.3406 45.0651 49.5211C47.0944 51.0994 50.3705 50.5291 51.352 48.0223C52.3866 45.3696 51.2857 41.8017 47.9963 41.5762ZM50.4633 46.8816C49.7736 50.4363 45.0651 50.1975 44.76 46.6694C44.5743 44.5207 45.3701 42.3455 47.93 42.5842C50.0522 42.7832 50.8347 45.0115 50.4633 46.8816Z" fill="white"/>
<path d="M57.1084 46.6295C55.6627 46.2448 53.2354 45.9928 53.1293 44.0166C53.01 41.9607 55.4372 41.3506 56.989 41.6424C58.3154 41.8944 59.1643 42.5841 59.35 43.9502C59.3632 44.0431 59.2969 44.1227 59.2041 44.1359L58.4082 44.2155C58.3287 44.2288 58.2623 44.1625 58.2491 44.0961C58.196 43.7911 58.0899 43.5126 57.9175 43.2738C57.2808 42.3719 55.1056 42.3056 54.4424 43.234C54.018 43.8309 54.27 44.5869 54.9597 44.8389C56.3656 45.3297 59.8009 45.5021 59.602 48.0089C59.4163 50.33 56.7105 50.7147 54.9464 50.2107C53.6731 49.8525 52.9569 48.9904 52.7977 47.6508C52.7845 47.5845 52.8375 47.5182 52.9171 47.5049L53.8058 47.4386C53.8456 47.4386 53.8854 47.4651 53.8986 47.5182C54.1374 49.2292 55.981 49.6536 57.3737 49.2557C58.3684 48.9771 58.9255 47.9293 58.1164 47.0937C57.9573 46.908 57.6124 46.7621 57.1084 46.6295Z" fill="white"/>
<path d="M65.8093 44.5337C66.2868 45.0112 67.4938 45.1704 68.1702 45.3561C69.2048 45.6479 69.868 45.7805 70.425 46.4835C71.1943 47.4517 71.0219 48.8444 70.0934 49.6535C69.0987 50.5156 67.4009 50.5554 66.1276 50.184C64.8145 49.7994 64.3901 48.8577 64.0718 47.6241C64.0585 47.5711 64.085 47.5446 64.1381 47.5313L65.1063 47.4119C65.1594 47.4119 65.1992 47.4384 65.1992 47.4915C65.4644 49.3086 67.5203 49.7198 68.9528 49.1362C70.1332 48.6587 70.1067 47.2395 68.8864 46.762C68.0508 46.4437 66.698 46.2978 65.6501 45.754C63.7534 44.7725 64.2309 42.385 66.1144 41.7749C67.9713 41.178 70.3189 41.6953 70.6903 43.9501C70.7036 44.0297 70.6505 44.1093 70.5709 44.1226L69.669 44.2287C69.6425 44.2287 69.6159 44.2154 69.6027 44.1756C69.3639 42.5972 67.8121 42.332 66.5255 42.7034C65.7165 42.9421 65.1461 43.8705 65.8093 44.5337Z" fill="white"/>
<path d="M23.7505 46.9346H21.4294C21.3498 46.9346 21.2968 46.8815 21.2968 46.802V46.0062C21.2968 45.9398 21.3233 45.9 21.4029 45.9H24.8779C24.9177 45.9 24.9442 45.9266 24.9442 45.9664V48.9109C24.9442 49.0037 24.9044 49.0833 24.8381 49.1496C21.1641 52.1737 15.8056 49.5873 17.2646 44.4543C17.7156 42.8627 18.7502 41.9342 20.3683 41.6557C22.2915 41.3241 24.2545 41.921 24.7718 44.0034C24.7851 44.0829 24.7453 44.1493 24.6657 44.1758L23.8168 44.3747C23.7638 44.388 23.7373 44.3615 23.724 44.3084C23.5118 43.3667 22.9282 42.8096 21.9732 42.6239C19.4664 42.1597 18.0472 44.0166 18.2196 46.3245C18.4584 49.3884 21.5355 50.1974 23.7638 48.5395C23.8036 48.513 23.8301 48.4599 23.8301 48.4201V47.0009C23.8168 46.9479 23.7903 46.9346 23.7505 46.9346Z" fill="white"/>
<path d="M10.4869 46.4302V49.1891C10.4869 49.2289 10.5135 49.2554 10.5533 49.2554H15.6597C15.6995 49.2554 15.7261 49.2819 15.7261 49.3217V50.2369C15.7261 50.2767 15.6995 50.3032 15.6597 50.3032H9.41259C9.3728 50.3032 9.34627 50.2767 9.34627 50.2369L9.33301 41.8013C9.33301 41.7615 9.35953 41.7349 9.39933 41.7349L15.474 41.7217C15.5138 41.7217 15.5404 41.7482 15.5404 41.788V42.6634C15.5404 42.7032 15.5138 42.7297 15.474 42.7297L10.54 42.7828C10.5135 42.7828 10.4869 42.8093 10.4737 42.8491L10.4604 45.3028C10.4604 45.3426 10.4869 45.3692 10.5267 45.3692H15.1557C15.1955 45.3692 15.222 45.3957 15.222 45.4355V46.3109C15.222 46.3507 15.1955 46.3772 15.1557 46.3772L10.54 46.417C10.5135 46.3772 10.4869 46.4037 10.4869 46.4302Z" fill="white"/>
<path d="M33.2074 41.6821C33.3135 41.6821 33.3666 41.7352 33.3666 41.8413C33.3799 43.4462 33.3799 45.1041 33.3799 46.8019C33.3799 47.2794 33.3268 47.7568 33.2074 48.2078C32.7034 50.2902 30.6078 50.7146 28.7907 50.2769C27.2123 49.8923 26.695 48.6986 26.6552 47.1865C26.6022 45.3827 26.5889 43.5921 26.6022 41.8015C26.6022 41.7484 26.642 41.7219 26.6817 41.7219L27.6898 41.7484C27.7428 41.7484 27.7694 41.775 27.7694 41.828C27.7428 43.6717 27.7428 45.5153 27.7826 47.3457C27.8092 48.5659 28.4325 49.2424 29.6395 49.375C31.7219 49.6005 32.1861 48.42 32.1861 46.6294C32.1861 45.0245 32.1994 43.4197 32.2127 41.8015C32.2127 41.7617 32.2392 41.7352 32.279 41.7352L33.2074 41.6821Z" fill="white"/>
<path d="M42.7307 50.1312C41.8951 48.7916 41.1656 47.3724 39.879 46.3909C39.8127 46.3378 39.8127 46.3113 39.9055 46.298C40.2106 46.2582 40.4891 46.2184 40.7411 46.1123C42.3062 45.4624 42.5715 43.3137 41.3247 42.2659C40.7014 41.7353 39.6137 41.6823 38.8179 41.6955C37.6507 41.7088 36.4968 41.7221 35.3296 41.7353C35.2898 41.7353 35.2766 41.7619 35.2766 41.7884V50.0781C35.2766 50.2108 35.3429 50.2771 35.4755 50.2771H36.3244C36.3774 50.2771 36.404 50.2506 36.404 50.1975V46.5633C36.404 46.5102 36.4305 46.4837 36.4835 46.4704C37.6507 46.4306 38.7516 46.298 39.4811 47.3326C40.131 48.2743 40.7544 49.2293 41.338 50.2108C41.3645 50.2506 41.4043 50.2638 41.4441 50.2638H42.6776C42.6909 50.2638 42.6909 50.2638 42.7042 50.2638C42.7174 50.2638 42.7174 50.2638 42.7307 50.2506C42.7307 50.2506 42.7439 50.2506 42.7439 50.2373L42.7572 50.224C42.7572 50.224 42.7572 50.2108 42.7705 50.2108C42.7439 50.1975 42.7439 50.1577 42.7307 50.1312ZM39.7729 45.4093C39.6801 45.4359 39.5739 45.4491 39.4811 45.4624C39.4281 45.4624 39.375 45.4757 39.3219 45.4757L36.4835 45.5022C36.457 45.5022 36.4437 45.4889 36.4437 45.4624L36.4172 42.7566C36.4172 42.7301 36.4305 42.7168 36.457 42.7168L39.2954 42.6903C40.1708 42.6903 40.9003 43.2474 40.9003 43.9504V44.1891C40.9003 44.4278 40.8207 44.6401 40.6881 44.8258C40.6748 44.8523 40.6483 44.8788 40.6218 44.9053C40.5157 45.038 40.3698 45.1573 40.1973 45.2502C40.1575 45.2767 40.1045 45.29 40.0647 45.3165C40.0249 45.343 39.9719 45.3563 39.9188 45.3696C39.879 45.3828 39.8392 45.3961 39.7729 45.4093Z" fill="white"/>
<path d="M82.8132 50.1442L79.3779 41.7616C79.3647 41.7218 79.3249 41.6953 79.2851 41.6953L78.1842 41.7086C78.1444 41.7086 78.1046 41.7351 78.0914 41.7749L74.8816 50.1442C74.8816 50.1575 74.8816 50.1707 74.8816 50.184C74.8816 50.1973 74.8816 50.1973 74.8816 50.2105V50.2238C74.8816 50.2238 74.8816 50.2371 74.8949 50.2371C74.8949 50.2503 74.9081 50.2503 74.9081 50.2636C74.9214 50.2636 74.9214 50.2768 74.9346 50.2768C74.9479 50.2768 74.9612 50.2768 74.9744 50.2768L75.9692 50.2636C76.009 50.2636 76.0488 50.2371 76.0621 50.1973L76.9905 47.7435C77.0038 47.7037 77.0436 47.6772 77.0833 47.6772L80.4921 47.6905C80.5319 47.6905 80.5717 47.717 80.5849 47.7568L81.5399 50.2105C81.5532 50.2503 81.593 50.2768 81.6328 50.2768L82.7204 50.2901C82.7336 50.2901 82.7469 50.2901 82.7602 50.2768C82.7734 50.2768 82.7734 50.2636 82.7867 50.2636C82.7999 50.2636 82.7999 50.2503 82.7999 50.2503C82.7999 50.2503 82.8132 50.2371 82.8132 50.2238C82.8132 50.2238 82.8132 50.2238 82.8132 50.2105C82.8265 50.1973 82.8265 50.1707 82.8132 50.1442ZM80.1605 46.6824C80.1472 46.6957 80.1605 46.6957 80.1605 46.6824C80.1472 46.6957 80.1472 46.6957 80.1605 46.6824C80.1605 46.7089 80.1472 46.7089 80.1472 46.7222C80.134 46.7355 80.1207 46.7487 80.1074 46.762C80.1074 46.762 80.1074 46.762 80.0942 46.762C80.0544 46.7753 80.0279 46.762 79.9881 46.7355C79.1392 46.7355 78.2903 46.7355 77.4282 46.7222C77.3751 46.7222 77.3619 46.6957 77.3751 46.6426C77.8261 45.3959 78.4628 44.0695 78.6352 42.7697C78.6352 42.7697 78.6352 42.7564 78.6485 42.7564C78.6485 42.7564 78.6484 42.7564 78.6617 42.7564C78.6617 42.7564 78.675 42.7564 78.6882 42.7564C78.6882 42.7564 78.6882 42.7564 78.7015 42.7564H78.7148L78.728 42.7697L80.1605 46.6294V46.6426C80.1605 46.6426 80.1605 46.6559 80.1605 46.6692C80.1605 46.6824 80.1605 46.6824 80.1605 46.6824Z" fill="white"/>
<path d="M74.5633 41.4564C74.7888 41.5095 74.9214 41.7349 74.8551 41.9472L72.4809 50.1175C72.4278 50.3165 72.2156 50.4358 72.0167 50.396C71.7912 50.343 71.6586 50.1175 71.7249 49.9053L74.099 41.7349C74.1521 41.5227 74.3511 41.4033 74.5633 41.4564Z" fill="white"/>
<path d="M93.7291 1.09548H92.615V4.13283H91.859V1.09548H90.7581V0.485352H93.7291V1.09548Z" fill="white"/>
<path d="M95.1483 0.498535L96.0901 3.13799L97.0185 0.498535H98V4.14602H97.244V3.15125L97.3236 1.42699L96.3421 4.14602H95.8248L94.8433 1.42699L94.9229 3.13799V4.13275H94.1668V0.498535H95.1483Z" fill="white"/>
<path d="M42.6909 7.02436C39.9188 7.02436 37.1335 7.0111 34.3614 6.98457C32.9952 6.97131 32.0668 6.40098 31.4434 5.16746C30.5945 3.46973 31.2046 0.803747 33.2074 0.167096C33.5523 0.060987 34.1889 0.0079326 35.1174 0.0079326C42.7837 -0.00533098 50.4501 -0.00533088 58.1297 0.0344598C58.647 0.0344598 59.0449 0.100778 59.3499 0.206886C62.1353 1.25471 62.1088 5.85717 59.2969 6.83867C58.952 6.95805 58.395 7.02436 57.6257 7.02436C56.2197 7.02436 54.8271 7.02436 53.4211 7.02436C52.4662 7.02436 51.0204 6.94478 49.8134 7.03763C49.7604 7.03763 49.7339 7.06415 49.7339 7.11721C49.7339 14.8631 49.7339 22.6223 49.7339 30.3683C49.7339 30.5672 49.7471 30.9651 49.7736 31.562C49.8532 33.6178 48.7656 35.2493 46.7628 35.5676C45.0385 35.8328 43.4337 34.8381 42.9296 33.1801C42.797 32.769 42.744 32.1323 42.744 31.2702C42.7572 23.2059 42.744 15.1417 42.744 7.09068C42.744 7.05089 42.7307 7.02436 42.6909 7.02436Z" fill="white"/>
<path d="M1.62687 0.631335C3.62967 -0.655232 6.29565 0.180373 7.09146 2.48824C7.21083 2.81982 7.26389 3.35037 7.26389 4.07986C7.30368 11.1228 7.31694 18.1658 7.29041 25.2087C7.29041 26.0046 7.2241 27.2646 7.30368 28.2991C7.30368 28.3522 7.3302 28.3787 7.38326 28.3787C12.8744 28.3787 18.3655 28.3787 23.8566 28.3787C24.8912 28.3787 25.6339 28.445 26.0584 28.5777C29.3743 29.599 29.3743 34.3606 26.1114 35.4482C25.74 35.5676 25.1697 35.6339 24.3872 35.6339C17.7554 35.6339 11.1103 35.6339 4.47854 35.6339C3.57661 35.6339 2.9267 35.5676 2.51553 35.435C0.81779 34.9044 0.00871231 33.4454 0.00871231 31.7079C-0.00455126 22.6091 -0.00455147 13.5103 0.0219757 4.39819C0.0352393 2.74024 0.273984 1.50673 1.62687 0.631335Z" fill="white"/>
<path d="M79.6034 0.551758H79.7626C81.7256 0.551758 83.3172 2.14339 83.3172 4.1064V32.5568C83.3172 34.5198 81.7256 36.1114 79.7626 36.1114H79.6034C77.6404 36.1114 76.0488 34.5198 76.0488 32.5568V4.1064C76.0488 2.14339 77.6404 0.551758 79.6034 0.551758Z" fill="white"/>
</svg>
