<svg width="99" height="34" viewBox="0 0 99 34" fill="none" xmlns="http://www.w3.org/2000/svg">
<g clip-path="url(#clip0_92_2766)">
<path d="M19.1612 8.24691L16.8535 5.93273C16.7963 5.87333 16.6995 5.87333 16.6401 5.93273L14.5348 8.03793" stroke="white" stroke-width="2"/>
<path d="M13.9144 13.5286L11.6243 11.2166C11.5473 11.1396 11.5473 11.0164 11.6243 10.9372L13.8946 8.64941" stroke="white" stroke-width="2"/>
<path d="M14.0486 20.3677C14.02 20.3699 13.9958 20.3919 13.9804 20.4293C13.9562 20.4843 13.9672 20.5327 14.009 20.5745L16.2463 22.8116C16.3057 22.871 16.3057 22.9304 16.2463 22.9898L13.9078 25.3106" stroke="white" stroke-width="2"/>
<path d="M13.3006 25.9705L11.1821 28.0559C11.1227 28.1153 11.0611 28.1153 11.0017 28.0559L8.68082 25.7505" stroke="white" stroke-width="2"/>
<path d="M19.1611 8.24702L16.8534 5.93284C16.7962 5.87345 16.6994 5.87345 16.64 5.93284L14.5347 8.03804L11.8135 5.2883C11.7607 5.23551 11.7607 5.15192 11.8135 5.09912L16.8732 0.0395963C16.926 -0.0131988 17.0118 -0.0131988 17.0646 0.0395963L22.098 5.07052C22.153 5.12552 22.153 5.18271 22.098 5.23991L19.1611 8.24702Z" fill="white"/>
<path d="M19.1611 8.24691L21.8824 11.0099C21.9462 11.0736 21.9462 11.1352 21.8824 11.199L16.8226 16.2586C16.772 16.3092 16.7192 16.3092 16.6687 16.2586L13.9144 13.5286L11.6243 11.2166C11.5473 11.1396 11.5473 11.0165 11.6243 10.9373L13.8946 8.64947L14.5347 8.03793L16.6401 5.93273C16.6995 5.87333 16.794 5.87333 16.8534 5.93273L19.1611 8.24691Z" fill="white"/>
<path d="M13.8946 8.64936L11.6243 10.9371C11.5473 11.0163 11.5473 11.1395 11.6243 11.2165L13.9144 13.5285L11.2327 16.2079C11.1579 16.2848 11.0347 16.2826 10.9577 16.2079L6.00132 11.2451C5.89132 11.1373 5.89132 11.0273 6.00132 10.9195L10.9071 6.00521C11.0039 5.90842 11.1623 5.90842 11.2591 6.00521L13.8968 8.65156L13.8946 8.64936Z" fill="white"/>
<path d="M37.6733 10.3434C36.9892 9.94079 35.9816 10.1498 35.9662 11.1089C35.9376 13.1569 36.7252 13.995 38.3729 15.0289C39.3013 15.6119 40.498 16.4852 41.9631 17.6511C43.8045 19.1161 43.6307 20.4382 43.5361 22.781C43.4503 24.928 41.6178 25.8233 39.7676 26.1225C37.5523 26.481 32.0086 26.767 30.7568 24.2548C30.1871 23.111 30.4687 20.3942 30.4731 19.0611C30.4731 18.8874 30.561 18.7994 30.7348 18.8016L35.5372 18.8368C35.623 18.8368 35.6934 18.9071 35.6934 18.9951C35.6934 20.304 35.7 21.6349 35.7154 22.9856C35.7242 23.8853 37.1256 23.7115 37.6513 23.4739C37.7217 23.4431 37.7591 23.3881 37.7613 23.3111C37.8361 21.2433 38.0891 19.9718 36.1444 18.6806C35.403 18.19 33.9753 17.1627 31.8612 15.6031C30.7568 14.7869 30.4643 14.0698 30.4687 12.6289C30.4731 11.8744 30.3939 10.9747 30.5984 10.317C31.6082 7.09206 37.9659 7.45723 40.3132 7.97858C43.6065 8.70891 43.0917 11.3553 43.0653 13.9312C43.0653 14.0148 42.9949 14.083 42.9113 14.083L38.0583 14.0742C37.9065 14.0742 37.7855 13.951 37.7855 13.7992V10.5413C37.7855 10.4533 37.7481 10.3873 37.6733 10.3434Z" fill="white"/>
<path d="M64.9059 23.5269C65.4559 23.7667 66.701 23.8679 66.7076 22.9C66.7186 21.2237 66.9474 20.0711 65.3965 18.9668C64.07 18.023 62.7434 17.0815 61.4125 16.1422C59.2962 14.6442 59.3226 13.7334 59.3314 11.3291C59.3402 9.25247 60.9461 8.30876 62.772 7.95459C64.9895 7.52343 70.4761 7.13627 71.686 9.70563C72.1546 10.7043 71.9434 12.7567 71.9368 13.9666C71.9368 14.0392 71.8994 14.0766 71.8268 14.0766H66.9342C66.8132 14.0766 66.7142 13.9776 66.7142 13.8566V10.6779C66.7142 10.5195 66.624 10.3744 66.4788 10.304C65.5175 9.84201 64.9235 10.3326 64.8729 11.3181C64.7805 13.1285 65.6539 13.8808 67.1586 14.9323C68.3488 15.7617 69.5191 16.613 70.6697 17.4863C71.9764 18.4784 72.4626 19.2307 72.4318 20.94C72.3988 22.6888 72.7244 24.2793 70.9337 25.333C68.5974 26.7078 61.0077 27.1324 59.6174 24.1187C59.063 22.9176 59.3512 20.357 59.3424 18.9646C59.3424 18.8898 59.4018 18.8282 59.4766 18.826C59.4766 18.826 59.4766 18.826 59.4788 18.826L64.3999 18.8128C64.5231 18.8128 64.6243 18.9118 64.6243 19.0349V23.098C64.6243 23.3025 64.7189 23.4455 64.9059 23.5269Z" fill="white"/>
<path d="M44.7636 7.93252C44.7636 7.86432 44.8164 7.80933 44.8846 7.80713C44.8846 7.80713 44.8846 7.80713 44.8868 7.80713H50.3778C50.4548 7.80713 50.4922 7.84452 50.4922 7.92152C50.4922 12.8886 50.4922 17.8536 50.4878 22.8163C50.4878 23.8634 51.0113 23.7886 51.8297 23.7512C52.2301 23.7314 52.4303 23.4763 52.4303 22.9857C52.4215 17.9614 52.4149 12.9392 52.4105 7.92152C52.4105 7.85772 52.4611 7.80713 52.5249 7.80713H57.9652C58.0862 7.80713 58.1852 7.90612 58.1874 8.02711C58.194 12.4399 58.194 16.8395 58.183 21.2281C58.1808 22.5369 58.15 23.3025 58.095 23.5268C57.1469 27.2775 46.5961 27.1103 45.0584 24.2286C44.8626 23.8612 44.7636 23.3091 44.7658 22.5743C44.7768 17.693 44.7768 12.8139 44.7636 7.93252Z" fill="white"/>
<path d="M79.5683 23.8106H84.7666C84.8502 23.8106 84.9184 23.8788 84.9184 23.9624V26.0236C84.9206 26.1072 84.8524 26.1754 84.7688 26.1754H73.8485C73.7649 26.1754 73.6967 26.1072 73.6967 26.0236V7.95891C73.6967 7.87532 73.7649 7.80713 73.8485 7.80713H84.7116C84.7952 7.80713 84.8634 7.87532 84.8634 7.95891V10.0377C84.8634 10.1213 84.7952 10.1895 84.7116 10.1895L79.5705 10.1631C79.4869 10.1631 79.4187 10.2313 79.4187 10.3149V14.9697C79.4187 15.0532 79.4869 15.1214 79.5705 15.1214H84.1617C84.2452 15.1214 84.3134 15.1896 84.3134 15.2732V17.2244C84.3134 17.308 84.2452 17.3762 84.1617 17.3762H79.5771C79.4935 17.3762 79.4253 17.4444 79.4253 17.528L79.4165 23.6588C79.4165 23.7424 79.4847 23.8106 79.5683 23.8106Z" fill="white"/>
<path d="M85.8556 8.09535C85.8556 7.90837 85.948 7.81598 86.135 7.81378C88.1061 7.79618 90.1388 7.80058 92.2309 7.82698C94.2944 7.85558 98.9538 7.82918 98.9846 10.6779C99.0044 12.5455 99.0044 14.411 98.989 16.2742C98.9714 18.2518 97.4997 19.0217 95.7398 19.2219C94.345 19.3803 92.9767 19.4419 91.6325 19.4045C91.5181 19.4023 91.4609 19.4573 91.4609 19.5739L91.4675 26.0699C91.4675 26.1403 91.4323 26.1755 91.3619 26.1755H86.0448C85.937 26.1755 85.8512 26.0897 85.8512 25.9819L85.8556 8.09535ZM91.4675 10.6845L91.4587 16.558C91.4587 16.6767 91.5533 16.7713 91.6721 16.7713H92.0461C92.7875 16.7735 93.3903 16.3402 93.3903 15.8034L93.3991 11.4478C93.3991 10.9111 92.7985 10.4755 92.0571 10.4733H91.6831C91.5643 10.4711 91.4697 10.5657 91.4697 10.6845H91.4675Z" fill="white"/>
<path d="M22.5114 11.8467L17.4833 16.8922C17.4216 16.9542 17.4218 17.0544 17.4837 17.1162L22.5263 22.141C22.5883 22.2027 22.6886 22.2025 22.7503 22.1406L27.7784 17.0951C27.8402 17.0332 27.84 16.9329 27.778 16.8711L22.7355 11.8464C22.6735 11.7846 22.5732 11.7848 22.5114 11.8467Z" fill="white"/>
<path d="M5.0795 11.8564L0.0487972 16.8868C-0.0147773 16.9504 -0.0147777 17.0535 0.0487968 17.1171L5.06083 22.1288C5.1244 22.1924 5.22748 22.1924 5.29105 22.1288L10.3218 17.0984C10.3853 17.0348 10.3853 16.9318 10.3218 16.8682L5.30972 11.8564C5.24615 11.7928 5.14307 11.7928 5.0795 11.8564Z" fill="white"/>
<path d="M14.0486 20.368C14.02 20.3702 13.9958 20.3922 13.9804 20.4296C13.9562 20.4846 13.9672 20.533 14.009 20.5748L16.2463 22.8119C16.3057 22.8713 16.3057 22.9307 16.2463 22.9901L13.9078 25.3109L13.3006 25.9708L11.1821 28.0563C11.1227 28.1156 11.0611 28.1156 11.0017 28.0563L8.68082 25.7509L5.95514 23.0341C5.88694 22.9637 5.88694 22.8537 5.95514 22.7833L10.9621 17.7656C11.0281 17.7018 11.1315 17.7018 11.1975 17.7656C12.0423 18.6103 12.8914 19.4551 13.7428 20.302C13.8022 20.3636 13.9056 20.3856 14.0486 20.368Z" fill="white"/>
<path d="M13.9078 25.3109L16.2463 22.9901C16.3057 22.9307 16.3057 22.8714 16.2463 22.812L14.009 20.5748C13.9672 20.533 13.9562 20.4846 13.9804 20.4296C13.9958 20.3922 14.02 20.3702 14.0486 20.368L16.6775 17.7458C16.7324 17.6908 16.7896 17.6908 16.8446 17.7458L21.9044 22.8054C21.9572 22.8582 21.9572 22.9461 21.9044 22.9989L16.8468 28.0585C16.783 28.1223 16.7215 28.1223 16.6599 28.0585L13.9078 25.3109Z" fill="white"/>
<path d="M8.68083 25.751L11.0017 28.0564C11.0611 28.1158 11.1227 28.1158 11.1821 28.0564L13.3006 25.971L16.0263 28.7009C16.0857 28.7603 16.0857 28.8197 16.0263 28.8791L10.9445 33.9584C10.8895 34.0134 10.8323 34.0134 10.7773 33.9584L5.70656 28.8791C5.65376 28.8263 5.65376 28.7735 5.70656 28.7207L8.68083 25.751Z" fill="white"/>
</g>
<defs>
<clipPath id="clip0_92_2766">
<rect width="99" height="34" fill="white"/>
</clipPath>
</defs>
</svg>
